<?xml version="1.0" encoding="UTF-8"?><svg id="Layer_1" xmlns="http://www.w3.org/2000/svg" viewBox="0 0 193.88 116"><defs><style>.cls-1{fill:#c34298;}.cls-2{fill:#05abdb;}</style></defs><path class="cls-2" d="M25.67,57.73V12.46C25.67,5.63,20.11,.06,13.28,.06H0V70H13.41c6.83,0,12.27-5.44,12.27-12.26h0ZM8.47,8.41h4.81c2.15,0,3.92,1.77,3.92,4.05V57.73c0,2.15-1.64,3.79-3.79,3.79h-4.93V8.41ZM0,88.46H25.67v-8.47H0v8.47Zm0,0"/><rect class="cls-1" x="39.59" width="8.47" height="88.53"/><path class="cls-1" d="M90.05,0l-9.74,61.84L70.57,0h-8.6l13.91,88.53h8.73L98.52,0h-8.47Zm0,0"/><path class="cls-2" d="M119.52,0h-8.35V70.06h8.35V0Zm-8.35,88.53h8.35v-8.47h-8.35v8.47Zm0,0"/><path class="cls-2" d="M162.26,0V70.06h-8.73l-12.9-41.73v41.73h-8.47V0h8.47l13.16,42.24V0h8.47Zm0,80.05v8.47h-48.02v-8.47h48.02Zm0,0"/><path class="cls-2" d="M193.88,70.06h-18.97V0h18.97V8.35h-10.5V31.62h7.46v8.35h-7.46v21.62h10.5v8.47Zm0,9.99v8.47h-36.89v-8.47h36.89Zm0,0"/><path class="cls-1" d="M.79,115.93c.45,0,.78-.31,.78-.75v-11.73c0-.44-.33-.75-.78-.75s-.79,.33-.79,.75v11.73c0,.42,.35,.75,.79,.75H.79Zm11.15,.02c.45,0,.66-.35,.77-.63l4.08-11.55c.02-.07,.04-.14,.04-.23,0-.4-.33-.8-.84-.8-.3,0-.58,.19-.68,.49l-3.33,9.79s-.02,.05-.04,.05c-.02,0-.02-.01-.04-.05l-3.33-9.79c-.1-.3-.39-.47-.7-.49-.51,0-.82,.4-.82,.8,0,.09,.02,.16,.03,.23l4.07,11.55c.09,.28,.33,.63,.79,.63h0Zm24.86-13.21c-.46,0-.7,.35-.79,.63l-4.07,11.56c-.02,.07-.04,.14-.04,.23,0,.4,.32,.8,.82,.8,.32-.02,.59-.2,.7-.49l.82-2.41c.02-.09,.09-.12,.18-.12h4.75c.09,0,.14,.05,.16,.12l.84,2.41c.11,.3,.38,.49,.68,.49,.51,0,.84-.4,.84-.8,0-.09-.02-.16-.04-.23-4.12-11.68-4.05-11.47-4.09-11.56-.12-.28-.31-.63-.77-.63h0Zm-.03,2.93s.02-.05,.03-.05c.02,0,.03,.02,.03,.05l1.91,5.55s.02,.03,.02,.05c0,.05-.07,.08-.12,.08h-3.68c-.05,0-.09-.04-.09-.08,0-.02,0-.04,.02-.05l1.89-5.55Zm11.6,10.26c.45,0,.79-.31,.79-.75v-9.86s.02-.07,.04-.07c.02,0,.03,.02,.05,.05l5.9,9.86c.25,.42,.66,.77,1.24,.77,.61,0,1.13-.59,1.13-1.22v-11.26c0-.44-.33-.75-.79-.75s-.79,.33-.79,.75v9.95s0,.05-.02,.05c-.02,0-.03-.02-.05-.05l-5.93-9.95c-.25-.4-.66-.75-1.22-.75-.63,0-1.13,.59-1.13,1.24v11.24c0,.42,.35,.75,.78,.75h0Zm19.07-.07c3.61-.01,6.51-2.91,6.51-6.54s-2.9-6.53-6.51-6.55h-3.26c-.44,0-.75,.3-.75,.75v11.66c0,.4,.39,.68,.79,.68h3.23Zm-.04-11.52c2.72,0,4.98,2.25,4.98,4.98s-2.23,4.96-4.94,4.97h-2.34c-.09,0-.1-.05-.1-.11v-9.77s.03-.07,.1-.07h2.3Zm31.97,11.61c.45,0,.66-.33,.77-.63l3.11-11.55c.02-.07,.04-.14,.04-.23,0-.4-.33-.8-.84-.8-.3,0-.57,.19-.68,.49l-2.36,9.62s-.02,.05-.04,.05c-.02,0-.04-.02-.04-.05,0,0-2.3-9.39-2.36-9.57-.09-.31-.35-.54-.79-.54s-.68,.21-.79,.54c-.16,.51-2.3,9.55-2.27,9.57-.02,.03-.02,.05-.04,.05-.02,0-.04-.02-.04-.05l-2.37-9.62c-.11-.28-.39-.49-.7-.49-.51,0-.82,.4-.82,.8,0,.09,.02,.16,.04,.23l3.1,11.55c.07,.28,.33,.63,.79,.63s.66-.33,.77-.63c2.29-9.06,2.29-9.08,2.31-9.08,.02,0,.03,.02,.05,.04l2.36,9.04c.07,.28,.33,.63,.79,.63h0Zm16.28-.87c0-.45-.31-.79-.75-.79h-4.03c-.09,0-.1-.05-.1-.11v-4.03s.03-.09,.1-.09h4.03c.42,0,.75-.35,.75-.79,0-.46-.31-.79-.75-.79h-4.03c-.07,0-.1-.02-.1-.07v-4.02s.03-.07,.1-.07h4.03c.44,0,.75-.33,.75-.78s-.33-.79-.75-.79h-4.96c-.44,0-.75,.3-.75,.75v11.66c0,.4,.38,.68,.79,.68h4.92c.4,0,.75-.35,.75-.78h0Zm12.35,0c0-.45-.31-.79-.75-.79h-4.03c-.09,0-.11-.05-.11-.11v-10.75c0-.44-.33-.75-.79-.75s-.78,.33-.78,.75v11.67c0,.56,.44,.75,.75,.75h4.96c.42,0,.75-.35,.75-.78h0Zm12.36,0c0-.45-.32-.79-.75-.79h-4.03c-.09,0-.1-.05-.1-.11v-10.75c0-.44-.33-.75-.79-.75s-.78,.33-.78,.75v11.67c0,.56,.44,.75,.75,.75h4.96c.42,0,.75-.35,.75-.78h0Zm6.67,.86c.46,0,.79-.31,.79-.75v-9.86s.02-.07,.03-.07c.02,0,.03,.02,.05,.05l5.9,9.86c.25,.42,.66,.77,1.24,.77,.61,0,1.13-.59,1.13-1.22v-11.26c0-.44-.33-.75-.78-.75s-.79,.33-.79,.75v9.95s0,.05-.02,.05c-.02,0-.04-.02-.05-.05l-5.93-9.95c-.25-.4-.66-.75-1.22-.75-.63,0-1.14,.59-1.14,1.24v11.24c0,.42,.35,.75,.78,.75h0Zm21.52-.86c0-.45-.32-.79-.75-.79h-4.03c-.09,0-.11-.05-.11-.11v-4.03s.03-.09,.11-.09h4.03c.42,0,.75-.35,.75-.79,0-.46-.32-.79-.75-.79h-4.03c-.07,0-.11-.02-.11-.07v-4.02s.03-.07,.11-.07h4.03c.44,0,.75-.33,.75-.78s-.33-.79-.75-.79h-4.96c-.43,0-.75,.3-.75,.75v11.66c0,.4,.39,.68,.79,.68h4.92c.4,0,.75-.35,.75-.78h0Zm5.73-1.5v.09c.21,1.17,1.5,2.34,3.35,2.34,1.97,0,3.67-1.66,3.67-3.66,0-1.38-.59-2.46-1.87-3.21-.75-.43-2.07-1.01-2.7-1.34-.54-.3-.93-.73-.93-1.68,0-.99,.96-1.92,2.01-1.92,.68,0,1.36,.37,1.66,.92,.14,.26,.4,.45,.72,.45,.42,0,.79-.37,.79-.78,0-.14-.04-.26-.11-.39-.61-1.05-1.78-1.76-3.07-1.76-1.92,0-3.56,1.61-3.56,3.56,0,1.39,.52,2.27,1.82,2.99,.76,.42,1.83,.8,2.67,1.34,.63,.4,1.08,1.01,1.08,1.8,0,1.17-1.06,2.13-2.13,2.13-.89,0-1.56-.38-1.87-1.05-.14-.31-.38-.61-.74-.61-.42,0-.78,.37-.78,.79h0Zm12.58,0v.09c.21,1.17,1.5,2.34,3.35,2.34,1.97,0,3.67-1.66,3.67-3.66,0-1.38-.59-2.46-1.87-3.21-.75-.43-2.08-1.01-2.71-1.34-.54-.3-.93-.73-.93-1.68,0-.99,.96-1.92,2.01-1.92,.68,0,1.36,.37,1.66,.92,.14,.26,.4,.45,.71,.45,.42,0,.79-.37,.79-.78,0-.14-.04-.26-.11-.39-.61-1.05-1.78-1.76-3.07-1.76-1.92,0-3.56,1.61-3.56,3.56,0,1.39,.52,2.27,1.82,2.99,.77,.42,1.83,.8,2.67,1.34,.62,.4,1.08,1.01,1.08,1.8,0,1.17-1.07,2.13-2.13,2.13-.89,0-1.55-.38-1.87-1.05-.14-.31-.38-.61-.73-.61-.42,0-.79,.37-.79,.79h0Zm0,0"/></svg>